# xmcd
#
# Track frame offsets:
#	150
#	16807
#	31679
#	50672
#	66350
#	83176
#	100620
#	120252
#	138380
#	156455
#	171366
#	188161
#	202793
#	218512
#
# Disc length: 3137 seconds
#
# Revision: 4
# Processed by: cddbd v1.5.2PL0 Copyright (c) Steve Scherf et al.
# Submitted via: EZCDAudioConverter 8.2.2.1
#
DISCID=b20c3f0e
DTITLE=LEANDRO and LEONARDO - EM NOME DO AMOR 2 [CD 2207-2) GLOBO CONTINENTAL
DYEAR=1998
DGENRE=SERTANEJO
TTITLE0=ESTA NOITE FOI MARAVILHOSA (WONDERFUL TONIGTH) (BY GILMAR SINISTRO)
TTITLE1=MEXE MEXE (BY GILMAR SINISTRO)
TTITLE2=DOR DE AMOR NÃO TEM JEITO (BY GILMAR SINISTRO)
TTITLE3=MULHER BRASILEIRA (BY GILMAR SINISTRO)
TTITLE4=DIZ PRA MIM (BY GILMAR SINISTRO)
TTITLE5=DOCE MISTÉRIO (BY GILMAR SINISTRO)
TTITLE6=EU SOU DESEJO, VOCÊ É PAIXÃO (RIGHT HERE WAITING) (BY GILMAR SINISTRO)
TTITLE7=HORIZONTE AZUL (BY GILMAR SINISTRO)
TTITLE8=RUMO À GOIÂNIA (BY GILMAR SINISTRO)
TTITLE9=ANARRIÊ (BY GILMAR SINISTRO)
TTITLE10=LOUCURAS DE AMOR (BY GILMAR SINISTRO)
TTITLE11=DEVOLVA A PASSAGEM (BY GILMAR SINISTRO)
TTITLE12=CERVEJA (BY GILMAR SINISTRO)
TTITLE13=POR CAUSA DELA (BY GILMAR SINISTRO)
EXTD=
EXTT0=
EXTT1=
EXTT2=
EXTT3=
EXTT4=
EXTT5=
EXTT6=
EXTT7=
EXTT8=
EXTT9=
EXTT10=
EXTT11=
EXTT12=
EXTT13=
PLAYORDER=
